<?xml version="1.0" encoding="iso-8859-1"?>
<!-- Generator: Adobe Illustrator 19.1.0, SVG Export Plug-In . SVG Version: 6.00 Build 0)  -->
<svg version="1.1" id="Capa_1" xmlns="http://www.w3.org/2000/svg" xmlns:xlink="http://www.w3.org/1999/xlink" x="0px" y="0px"
	 viewBox="0 0 322.421 322.421" style="enable-background:new 0 0 322.421 322.421;" xml:space="preserve">
<g>
	<path d="M303.141,65.207h-61.145c1.819-1.279,3.528-2.725,5.096-4.351c6.44-6.652,9.981-15.405,9.981-24.666
		c0-19.55-15.894-35.457-35.45-35.457c-6.69,0-12.442,2.159-15.264,3.451l-0.051,0.019c-8.445,3.908-30.277,22.835-45.097,36.132
		c-14.82-13.297-36.652-32.224-45.104-36.132l-0.045-0.019c-2.828-1.285-8.573-3.451-15.264-3.451
		c-19.557,0-35.457,15.906-35.457,35.457c0,9.255,3.541,18.014,9.981,24.666c1.575,1.62,3.284,3.072,5.096,4.351H19.281
		C8.651,65.207,0,73.857,0,84.487V129.7c0,10.63,8.651,19.281,19.281,19.281h10.225v147.644c0,13.818,11.247,25.065,25.065,25.065
		h75.843h12.854h35.881h12.854h75.856c13.818,0,25.052-11.247,25.052-25.065V148.98h10.232c10.63,0,19.28-8.651,19.28-19.281V84.487
		C322.421,73.857,313.771,65.207,303.141,65.207z M213.956,20.784c2.474-1.125,5.334-1.793,7.667-1.793
		c9.48,0,17.198,7.719,17.198,17.198c0,9.287-7.243,16.819-16.504,17.185h-48.266C190.434,38.709,208.647,23.259,213.956,20.784z
		 M100.805,18.991c2.327,0,5.193,0.668,7.661,1.793c5.309,2.474,23.522,17.924,39.911,32.59h-48.272
		c-9.255-0.366-16.498-7.899-16.498-17.185C83.607,26.71,91.319,18.991,100.805,18.991z M19.281,136.127
		c-3.548,0-6.427-2.886-6.427-6.427V84.487c0-3.541,2.879-6.427,6.427-6.427h111.133v58.066H29.506H19.281z M130.413,308.835H54.577
		c-6.735,0-12.211-5.482-12.211-12.211V148.98h88.054v159.855H130.413z M179.148,308.835h-35.881V148.98v-12.854V78.06h35.881
		v58.066v12.854V308.835z M280.056,296.618c0,6.735-5.476,12.211-12.198,12.211h-75.856V148.98h88.054V296.618z M309.568,129.7
		c0,3.541-2.886,6.427-6.427,6.427h-10.232H192.002V78.06h111.139c3.541,0,6.427,2.886,6.427,6.427V129.7z"/>
</g>
</svg>
